<?xml version="1.0" encoding="iso-8859-1"?>
<!-- Generator: Adobe Illustrator 19.0.0, SVG Export Plug-In . SVG Version: 6.00 Build 0)  -->
<svg version="1.1" id="Layer_1" xmlns="http://www.w3.org/2000/svg" xmlns:xlink="http://www.w3.org/1999/xlink" x="0px" y="0px"
	 viewBox="0 0 512 512" style="enable-background:new 0 0 512 512;" xml:space="preserve">
<rect x="186.22" y="172.404" style="fill:#747477;" width="87.995" height="129.793"/>
<rect x="249.643" y="332.171" style="fill:#828186;" width="109.994" height="176.816"/>
<rect x="249.643" y="332.171" style="fill:#747477;" width="109.994" height="82.354"/>
<circle style="fill:#FFFFFF;" cx="230.218" cy="126.207" r="106.694"/>
<path style="fill:#D9D8DB;" d="M230.215,56.194c52.671,0,96.423,38.168,105.118,88.353c1.033-5.959,1.576-12.086,1.576-18.342
	c0-58.926-47.768-106.694-106.694-106.694S123.52,67.28,123.52,126.206c0,6.254,0.543,12.382,1.576,18.342
	C133.791,94.362,177.543,56.194,230.215,56.194z"/>
<path style="fill:#79C6BF;" d="M230.215,136.656c-37.292,0-70.11,19.137-89.186,48.122c19.075,28.986,51.892,48.122,89.186,48.122
	c37.292,0,70.11-19.137,89.184-48.122C300.325,155.793,267.507,136.656,230.215,136.656z"/>
<path style="fill:#006D71;" d="M230.215,249.4c-67.929,0-123.194-55.264-123.194-123.194S162.285,3.013,230.215,3.013
	s123.194,55.264,123.194,123.194S298.144,249.4,230.215,249.4z M230.215,36.012c-49.734,0-90.195,40.461-90.195,90.195
	s40.461,90.195,90.195,90.195s90.195-40.461,90.195-90.195S279.948,36.012,230.215,36.012z"/>
<path style="fill:#FF4B00;" d="M230.202,159.609c-3.518,0-7.063-1.121-10.063-3.435l-57.571-44.4
	c-7.217-5.566-8.554-15.926-2.99-23.141c5.566-7.217,15.926-8.554,23.141-2.99l57.571,44.4c7.217,5.566,8.554,15.926,2.99,23.141
	C240.029,157.399,235.142,159.609,230.202,159.609z"/>
<path style="fill:#006D71;" d="M304.868,199.168c-16.84-24.772-44.748-39.561-74.653-39.561c-29.219,0-56.76,14.26-73.672,38.145
	l-26.931-19.069c23.088-32.608,60.697-52.075,100.603-52.075c40.843,0,78.953,20.188,101.944,54.006L304.868,199.168z"/>
<rect x="39.048" y="277.174" style="fill:#DFDEE1;" width="433.905" height="109.994"/>
<g>
	
		<rect x="256" y="277.175" transform="matrix(-1 -0.0026 0.0026 -1 728.0884 665.2919)" style="fill:#BFBDC3;" width="216.953" height="109.995"/>
	<path style="fill:#BFBDC3;" d="M39.048,421.266C17.482,421.266,0,403.784,0,382.218V282.124c0-21.565,17.482-39.048,39.048-39.048
		s39.048,17.481,39.048,39.048v100.095C78.096,403.784,60.613,421.266,39.048,421.266z"/>
</g>
<path style="fill:#828186;" d="M472.952,421.541c-21.565,0-39.048-17.482-39.048-39.048V282.399
	c0-21.565,17.482-39.048,39.048-39.048S512,260.833,512,282.399v100.095C512,404.059,494.519,421.541,472.952,421.541z"/>
<g>
</g>
<g>
</g>
<g>
</g>
<g>
</g>
<g>
</g>
<g>
</g>
<g>
</g>
<g>
</g>
<g>
</g>
<g>
</g>
<g>
</g>
<g>
</g>
<g>
</g>
<g>
</g>
<g>
</g>
</svg>
